REM DIRINDEX 1\2\4,1\2\5,1\2\6,1\3\7,1\3\8
REM DIRNAME cjc128,folder01,folder02,folder03,folder04,folder05,folder06,folder07
TITLE ""
FILE "003_Lesson 02_Output_Stage.mp3" MP3
  TRACK 01 AUDIO
    TITLE "0:"
    INDEX 01 00:00:00
  TRACK 02 AUDIO
    TITLE "6:cjc128_0076"
    INDEX 01 00:00:11
  TRACK 03 AUDIO
    TITLE "0:"
    INDEX 01 00:03:04
  TRACK 04 AUDIO
    TITLE "6:cjc128_0077"
    INDEX 01 00:03:35
  TRACK 05 AUDIO
    TITLE "0:"
    INDEX 01 00:04:70
  TRACK 06 AUDIO
    TITLE "4:cjc128_0078"
    INDEX 01 00:05:52
  TRACK 07 AUDIO
    TITLE "0:"
    INDEX 01 00:08:54
  TRACK 08 AUDIO
    TITLE "5:cjc128_0079"
    INDEX 01 00:11:48
  TRACK 09 AUDIO
    TITLE "0:"
    INDEX 01 00:14:02
  TRACK 10 AUDIO
    TITLE "6:cjc128_0080"
    INDEX 01 00:14:47
  TRACK 11 AUDIO
    TITLE "0:"
    INDEX 01 00:16:04
  TRACK 12 AUDIO
    TITLE "4:cjc128_0081"
    INDEX 01 00:16:67
  TRACK 13 AUDIO
    TITLE "0:"
    INDEX 01 00:18:72
  TRACK 14 AUDIO
    TITLE "5:cjc128_0082"
    INDEX 01 00:21:33
  TRACK 15 AUDIO
    TITLE "0:"
    INDEX 01 00:23:16
  TRACK 16 AUDIO
    TITLE "6:cjc128_0083"
    INDEX 01 00:23:71
  TRACK 17 AUDIO
    TITLE "0:"
    INDEX 01 00:25:29
  TRACK 18 AUDIO
    TITLE "4:cjc128_0084"
    INDEX 01 00:26:13
  TRACK 19 AUDIO
    TITLE "0:"
    INDEX 01 00:29:15
  TRACK 20 AUDIO
    TITLE "5:cjc128_0085"
    INDEX 01 00:32:37
  TRACK 21 AUDIO
    TITLE "0:"
    INDEX 01 00:35:25
  TRACK 22 AUDIO
    TITLE "6:cjc128_0086"
    INDEX 01 00:35:70
  TRACK 23 AUDIO
    TITLE "0:"
    INDEX 01 00:37:18
  TRACK 24 AUDIO
    TITLE "4:cjc128_0087"
    INDEX 01 00:38:06
  TRACK 25 AUDIO
    TITLE "0:"
    INDEX 01 00:41:22
  TRACK 26 AUDIO
    TITLE "5:cjc128_0088"
    INDEX 01 00:44:16
  TRACK 27 AUDIO
    TITLE "0:"
    INDEX 01 00:46:39
  TRACK 28 AUDIO
    TITLE "6:cjc128_0089"
    INDEX 01 00:47:17
  TRACK 29 AUDIO
    TITLE "0:"
    INDEX 01 00:48:44
  TRACK 30 AUDIO
    TITLE "4:cjc128_0090"
    INDEX 01 00:49:25
  TRACK 31 AUDIO
    TITLE "0:"
    INDEX 01 00:53:15
  TRACK 32 AUDIO
    TITLE "5:cjc128_0091"
    INDEX 01 00:57:05
  TRACK 33 AUDIO
    TITLE "0:"
    INDEX 01 01:00:21
  TRACK 34 AUDIO
    TITLE "6:cjc128_0092"
    INDEX 01 01:00:74
  TRACK 35 AUDIO
    TITLE "0:"
    INDEX 01 01:02:03
  TRACK 36 AUDIO
    TITLE "4:cjc128_0093"
    INDEX 01 01:02:52
  TRACK 37 AUDIO
    TITLE "0:"
    INDEX 01 01:05:13
  TRACK 38 AUDIO
    TITLE "5:cjc128_0094"
    INDEX 01 01:07:51
  TRACK 39 AUDIO
    TITLE "0:"
    INDEX 01 01:09:40
  TRACK 40 AUDIO
    TITLE "6:cjc128_0095"
    INDEX 01 01:10:20
  TRACK 41 AUDIO
    TITLE "0:"
    INDEX 01 01:11:43
  TRACK 42 AUDIO
    TITLE "4:cjc128_0096"
    INDEX 01 01:12:26
  TRACK 43 AUDIO
    TITLE "0:"
    INDEX 01 01:14:43
  TRACK 44 AUDIO
    TITLE "5:cjc128_0097"
    INDEX 01 01:17:16
  TRACK 45 AUDIO
    TITLE "0:"
    INDEX 01 01:18:72
  TRACK 46 AUDIO
    TITLE "6:cjc128_0098"
    INDEX 01 01:19:50
  TRACK 47 AUDIO
    TITLE "0:"
    INDEX 01 01:21:02
  TRACK 48 AUDIO
    TITLE "4:cjc128_0099"
    INDEX 01 01:21:61
  TRACK 49 AUDIO
    TITLE "0:"
    INDEX 01 01:25:06
  TRACK 50 AUDIO
    TITLE "5:cjc128_0100"
    INDEX 01 01:28:43
  TRACK 51 AUDIO
    TITLE "0:"
    INDEX 01 01:31:41
  TRACK 52 AUDIO
    TITLE "6:cjc128_0101"
    INDEX 01 01:32:19
  TRACK 53 AUDIO
    TITLE "0:"
    INDEX 01 01:33:42
  TRACK 54 AUDIO
    TITLE "4:cjc128_0102"
    INDEX 01 01:34:22
  TRACK 55 AUDIO
    TITLE "0:"
    INDEX 01 01:37:15
  TRACK 56 AUDIO
    TITLE "5:cjc128_0103"
    INDEX 01 01:40:07
  TRACK 57 AUDIO
    TITLE "0:"
    INDEX 01 01:42:35
  TRACK 58 AUDIO
    TITLE "6:cjc128_0104"
    INDEX 01 01:43:15
  TRACK 59 AUDIO
    TITLE "0:"
    INDEX 01 01:44:36
  TRACK 60 AUDIO
    TITLE "4:cjc128_0105"
    INDEX 01 01:45:18
  TRACK 61 AUDIO
    TITLE "0:"
    INDEX 01 01:47:23
  TRACK 62 AUDIO
    TITLE "5:cjc128_0106"
    INDEX 01 01:49:57
  TRACK 63 AUDIO
    TITLE "0:"
    INDEX 01 01:51:38
  TRACK 64 AUDIO
    TITLE "6:cjc128_0107"
    INDEX 01 01:52:22
  TRACK 65 AUDIO
    TITLE "0:"
    INDEX 01 01:53:51
  TRACK 66 AUDIO
    TITLE "4:cjc128_0108"
    INDEX 01 01:54:23
  TRACK 67 AUDIO
    TITLE "0:"
    INDEX 01 01:56:18
  TRACK 68 AUDIO
    TITLE "5:cjc128_0109"
    INDEX 01 01:58:38
  TRACK 69 AUDIO
    TITLE "0:"
    INDEX 01 02:00:27
  TRACK 70 AUDIO
    TITLE "6:cjc128_0110"
    INDEX 01 02:01:03
  TRACK 71 AUDIO
    TITLE "0:"
    INDEX 01 02:02:36
  TRACK 72 AUDIO
    TITLE "4:cjc128_0111"
    INDEX 01 02:03:22
  TRACK 73 AUDIO
    TITLE "0:"
    INDEX 01 02:05:54
  TRACK 74 AUDIO
    TITLE "5:cjc128_0112"
    INDEX 01 02:08:31
  TRACK 75 AUDIO
    TITLE "0:"
    INDEX 01 02:10:36
  TRACK 76 AUDIO
    TITLE "6:cjc128_0113"
    INDEX 01 02:11:19
  TRACK 77 AUDIO
    TITLE "0:"
    INDEX 01 02:12:42
  TRACK 78 AUDIO
    TITLE "4:cjc128_0114"
    INDEX 01 02:13:16
  TRACK 79 AUDIO
    TITLE "0:"
    INDEX 01 02:15:56
  TRACK 80 AUDIO
    TITLE "5:cjc128_0115"
    INDEX 01 02:18:12
  TRACK 81 AUDIO
    TITLE "0:"
    INDEX 01 02:19:64
  TRACK 82 AUDIO
    TITLE "6:cjc128_0116"
    INDEX 01 02:20:38
  TRACK 83 AUDIO
    TITLE "0:"
    INDEX 01 02:21:61
  TRACK 84 AUDIO
    TITLE "4:cjc128_0117"
    INDEX 01 02:22:33
  TRACK 85 AUDIO
    TITLE "0:"
    INDEX 01 02:24:51
  TRACK 86 AUDIO
    TITLE "5:cjc128_0118"
    INDEX 01 02:27:14
  TRACK 87 AUDIO
    TITLE "0:"
    INDEX 01 02:29:09
  TRACK 88 AUDIO
    TITLE "6:cjc128_0119"
    INDEX 01 02:29:57
  TRACK 89 AUDIO
    TITLE "0:"
    INDEX 01 02:31:10
  TRACK 90 AUDIO
    TITLE "4:cjc128_0120"
    INDEX 01 02:31:65
  TRACK 91 AUDIO
    TITLE "0:"
    INDEX 01 02:33:64
  TRACK 92 AUDIO
    TITLE "5:cjc128_0121"
    INDEX 01 02:35:71
  TRACK 93 AUDIO
    TITLE "0:"
    INDEX 01 02:37:36
  TRACK 94 AUDIO
    TITLE "6:cjc128_0122"
    INDEX 01 02:38:06
  TRACK 95 AUDIO
    TITLE "0:"
    INDEX 01 02:39:16
  TRACK 96 AUDIO
    TITLE "4:cjc128_0123"
    INDEX 01 02:39:73
  TRACK 97 AUDIO
    TITLE "0:"
    INDEX 01 02:42:34
  TRACK 98 AUDIO
    TITLE "5:cjc128_0124"
    INDEX 01 02:44:64
  TRACK 99 AUDIO
    TITLE "0:"
    INDEX 01 02:46:43
  TRACK 100 AUDIO
    TITLE "6:cjc128_0125"
    INDEX 01 02:47:23
  TRACK 101 AUDIO
    TITLE "0:"
    INDEX 01 02:48:50
  TRACK 102 AUDIO
    TITLE "4:cjc128_0126"
    INDEX 01 02:49:36
  TRACK 103 AUDIO
    TITLE "0:"
    INDEX 01 02:51:48
  TRACK 104 AUDIO
    TITLE "5:cjc128_0127"
    INDEX 01 02:54:25
  TRACK 105 AUDIO
    TITLE "0:"
    INDEX 01 02:56:34
  TRACK 106 AUDIO
    TITLE "6:cjc128_0128"
    INDEX 01 02:57:08
  TRACK 107 AUDIO
    TITLE "0:"
    INDEX 01 02:58:39
  TRACK 108 AUDIO
    TITLE "4:cjc128_0129"
    INDEX 01 02:59:22
  TRACK 109 AUDIO
    TITLE "0:"
    INDEX 01 03:02:05
  TRACK 110 AUDIO
    TITLE "5:cjc128_0130"
    INDEX 01 03:04:27
  TRACK 111 AUDIO
    TITLE "0:"
    INDEX 01 03:06:26
